<?xml version="1.0" encoding="utf-8"?>
<svg xmlns="http://www.w3.org/2000/svg" class="pikchr" viewBox="0 0 728 551">
	<title>Pedigree of the House of Beauvallet for those Readers who are Interested in the Fortunes of the Descendants of SIMON THE COLDHEART, 1st Baron Beauvallet.</title>
	<text dominant-baseline="central" fill="rgb(0,0,0)" text-anchor="middle" x="372.96" y="16.56">[1] Simon the Coldheart,</text>
	<text dominant-baseline="central" fill="rgb(0,0,0)" text-anchor="middle" x="372.96" y="36.72">1st Baron Beauvallet</text>
	<path d="M372.96,51.84L372.96,73.44" style="fill:none;stroke-width:0.864;stroke:rgb(0,0,0);"/>
	<path d="M372.96,73.44L113.76,73.44" style="fill:none;stroke-width:0.864;stroke:rgb(0,0,0);"/>
	<path d="M113.76,73.44L113.76,95.04" style="fill:none;stroke-width:0.864;stroke:rgb(0,0,0);"/>
	<text dominant-baseline="central" fill="rgb(0,0,0)" text-anchor="middle" x="113.76" y="110.16">[2.1] Geoffrey, 2nd Baron</text>
	<path d="M315.36,73.44L315.36,95.04" style="fill:none;stroke-width:0.864;stroke:rgb(0,0,0);"/>
	<text dominant-baseline="central" fill="rgb(0,0,0)" text-anchor="middle" x="315.36" y="110.16">[2.2] Henry,</text>
	<text dominant-baseline="central" fill="rgb(0,0,0)" text-anchor="middle" x="315.36" y="130.32">Count of Belrémy</text>
	<path d="M372.96,73.44L660.96,73.44" style="fill:none;stroke-width:0.864;stroke:rgb(0,0,0);"/>
	<path d="M502.56,73.44L502.56,95.04" style="fill:none;stroke-width:0.864;stroke:rgb(0,0,0);"/>
	<text dominant-baseline="central" fill="rgb(0,0,0)" text-anchor="middle" x="502.56" y="110.16">[2.3] Margaret</text>
	<path d="M660.96,73.44L660.96,95.04" style="fill:none;stroke-width:0.864;stroke:rgb(0,0,0);"/>
	<text dominant-baseline="central" fill="rgb(0,0,0)" text-anchor="middle" x="660.96" y="110.16">[2.4] Alan</text>
	<path d="M660.96,125.28L660.96,136.08" style="fill:none;stroke-width:0.864;stroke:rgb(0,0,0);"/>
	<text dominant-baseline="central" fill="rgb(0,0,0)" font-size="80%" text-anchor="middle" x="660.96" y="149.184">S.P.</text>
	<path d="M113.76,125.28L113.76,146.88L113.76,179.28" style="fill:none;stroke-width:0.864;stroke-linejoin:round;stroke:rgb(0,0,0);"/>
	<path d="M113.76,179.28L99.36,179.28" style="fill:none;stroke-width:0.864;stroke:rgb(0,0,0);"/>
	<path d="M99.36,179.28L99.36,200.88" style="fill:none;stroke-width:0.864;stroke:rgb(0,0,0);"/>
	<text dominant-baseline="central" fill="rgb(0,0,0)" text-anchor="middle" x="99.36" y="216">[3.1] John, 3rd Baron</text>
	<path d="M99.36,231.12L99.36,241.92" style="fill:none;stroke-width:0.864;stroke:rgb(0,0,0);"/>
	<text dominant-baseline="central" fill="rgb(0,0,0)" font-size="80%" text-anchor="middle" x="99.36" y="255.024">S.P.</text>
	<path d="M113.76,179.28L574.56,179.28" style="fill:none;stroke-width:0.864;stroke:rgb(0,0,0);"/>
	<path d="M344.16,179.28L344.16,200.88" style="fill:none;stroke-width:0.864;stroke:rgb(0,0,0);"/>
	<text dominant-baseline="central" fill="rgb(0,0,0)" text-anchor="middle" x="344.16" y="216">[3.2] Joan</text>
	<path d="M574.56,179.28L574.56,200.88" style="fill:none;stroke-width:0.864;stroke:rgb(0,0,0);"/>
	<text dominant-baseline="central" fill="rgb(0,0,0)" text-anchor="middle" x="574.56" y="216">[3.3] Henry, 4th Baron</text>
	<path d="M574.56,231.12L574.56,252.72L574.56,285.12" style="fill:none;stroke-width:0.864;stroke-linejoin:round;stroke:rgb(0,0,0);"/>
	<path d="M574.56,285.12L113.76,285.12" style="fill:none;stroke-width:0.864;stroke:rgb(0,0,0);"/>
	<path d="M113.76,285.12L113.76,306.72" style="fill:none;stroke-width:0.864;stroke:rgb(0,0,0);"/>
	<text dominant-baseline="central" fill="rgb(0,0,0)" text-anchor="middle" x="113.76" y="321.84">[4.1] Elizabeth</text>
	<path d="M286.56,285.12L286.56,306.72" style="fill:none;stroke-width:0.864;stroke:rgb(0,0,0);"/>
	<text dominant-baseline="central" fill="rgb(0,0,0)" text-anchor="middle" x="286.56" y="321.84">[4.2] Isabella</text>
	<path d="M286.56,336.96L286.56,347.76" style="fill:none;stroke-width:0.864;stroke:rgb(0,0,0);"/>
	<text dominant-baseline="central" fill="rgb(0,0,0)" font-size="80%" text-anchor="middle" x="286.56" y="360.864">S.P.</text>
	<path d="M459.36,285.12L459.36,306.72" style="fill:none;stroke-width:0.864;stroke:rgb(0,0,0);"/>
	<text dominant-baseline="central" fill="rgb(0,0,0)" text-anchor="middle" x="459.36" y="321.84">[4.3] Nicholas, 5th Baron</text>
	<path d="M574.56,285.12L660.96,285.12" style="fill:none;stroke-width:0.864;stroke:rgb(0,0,0);"/>
	<path d="M660.96,285.12L660.96,306.72" style="fill:none;stroke-width:0.864;stroke:rgb(0,0,0);"/>
	<text dominant-baseline="central" fill="rgb(0,0,0)" text-anchor="middle" x="660.96" y="321.84">[4.4] Geoffrey</text>
	<path d="M459.36,336.96L459.36,358.56L459.36,390.96" style="fill:none;stroke-width:0.864;stroke-linejoin:round;stroke:rgb(0,0,0);"/>
	<path d="M459.36,390.96L113.76,390.96" style="fill:none;stroke-width:0.864;stroke:rgb(0,0,0);"/>
	<path d="M113.76,390.96L113.76,412.56" style="fill:none;stroke-width:0.864;stroke:rgb(0,0,0);"/>
	<text dominant-baseline="central" fill="rgb(0,0,0)" text-anchor="middle" x="113.76" y="427.68">[5.1] Joanna</text>
	<path d="M113.76,442.8L113.76,453.6" style="fill:none;stroke-width:0.864;stroke:rgb(0,0,0);"/>
	<text dominant-baseline="central" fill="rgb(0,0,0)" font-size="80%" text-anchor="middle" x="113.76" y="466.704">S.P.</text>
	<path d="M243.36,390.96L243.36,412.56" style="fill:none;stroke-width:0.864;stroke:rgb(0,0,0);"/>
	<text dominant-baseline="central" fill="rgb(0,0,0)" text-anchor="middle" x="243.36" y="427.68">[5.2] Geoffrey</text>
	<path d="M243.36,442.8L243.36,453.6" style="fill:none;stroke-width:0.864;stroke:rgb(0,0,0);"/>
	<text dominant-baseline="central" fill="rgb(0,0,0)" font-size="80%" text-anchor="middle" x="243.36" y="466.704">S.P.</text>
	<path d="M358.56,390.96L358.56,412.56" style="fill:none;stroke-width:0.864;stroke:rgb(0,0,0);"/>
	<text dominant-baseline="central" fill="rgb(0,0,0)" text-anchor="middle" x="358.56" y="427.68">[5.3] Mary</text>
	<path d="M459.36,390.96L660.96,390.96" style="fill:none;stroke-width:0.864;stroke:rgb(0,0,0);"/>
	<path d="M502.56,390.96L502.56,412.56" style="fill:none;stroke-width:0.864;stroke:rgb(0,0,0);"/>
	<text dominant-baseline="central" fill="rgb(0,0,0)" text-anchor="middle" x="502.56" y="427.68">[5.4] Henry, 6th Baron</text>
	<path d="M660.96,390.96L660.96,412.56" style="fill:none;stroke-width:0.864;stroke:rgb(0,0,0);"/>
	<text dominant-baseline="central" fill="rgb(0,0,0)" text-anchor="middle" x="660.96" y="427.68">[5.5] Nicholas</text>
	<path d="M660.96,442.8L660.96,453.6" style="fill:none;stroke-width:0.864;stroke:rgb(0,0,0);"/>
	<text dominant-baseline="central" fill="rgb(0,0,0)" font-size="80%" text-anchor="middle" x="660.96" y="466.704">S.P.</text>
	<path d="M502.56,442.8L502.56,464.4L502.56,496.8" style="fill:none;stroke-width:0.864;stroke-linejoin:round;stroke:rgb(0,0,0);"/>
	<path d="M502.56,496.8L142.56,496.8" style="fill:none;stroke-width:0.864;stroke:rgb(0,0,0);"/>
	<path d="M142.56,496.8L142.56,518.4" style="fill:none;stroke-width:0.864;stroke:rgb(0,0,0);"/>
	<text dominant-baseline="central" fill="rgb(0,0,0)" text-anchor="middle" x="142.56" y="533.52">[6.1] Gerard, 7th Baron</text>
	<path d="M365.76,496.8L365.76,518.4" style="fill:none;stroke-width:0.864;stroke:rgb(0,0,0);"/>
	<text dominant-baseline="central" fill="rgb(0,0,0)" text-anchor="middle" x="365.76" y="533.52">[6.2] Adela</text>
	<path d="M502.56,496.8L574.56,496.8" style="fill:none;stroke-width:0.864;stroke:rgb(0,0,0);"/>
	<path d="M574.56,496.8L574.56,518.4" style="fill:none;stroke-width:0.864;stroke:rgb(0,0,0);"/>
	<text dominant-baseline="central" fill="rgb(0,0,0)" text-anchor="middle" x="574.56" y="533.52">[6.3] Nicholas</text>
</svg>
